# xmcd
#
# Track frame offsets:
#	150
#	11694
#	22311
#	34054
#	47027
#	58852
#	69736
#	85153
#	97221
#	110577
#	120663
#	131748
#	144201
#	156026
#	169424
#	181682
#	198655
#	207675
#
# Disc length: 2949 seconds
#
# Revision: 0
# Processed by: cddbd v1.5.2PL0 Copyright (c) Steve Scherf et al.
# Submitted via: audiograbber 1.83.01
#
DISCID=100b8312
DTITLE=Various Artist - The World Of Country Music
DYEAR=1900
DGENRE=Cult
TTITLE0=Jim Reeves  - Welcome To My World 
TTITLE1=Ricky Nelson  - Travelin' Man 
TTITLE2=Kenny Rogers  - Me And Bobby Mc Gee 
TTITLE3=Roy Orbison  - In Dreams 
TTITLE4=Ricky Nelson  - You Are The Only One 
TTITLE5=Hank Locklin  - Send Me The Pillow That You Dream On 
TTITLE6=Hoyt Axton  - Evangelina
TTITLE7=Frankie Laine  - Answer Me 
TTITLE8=Jimmy Dean  - Big Bad John 
TTITLE9=Ned Miller  - From A Jack To A King 
TTITLE10=Patsy Cline  - Stop The World 
TTITLE11=Roy Orbison  - Blue Bayou 
TTITLE12=Sutherland Brothers and Quiver  - Arms Of Mary 
TTITLE13=Patti Page  - Tennessee Waltz 
TTITLE14=Jim Reeves  - I Love You Because 
TTITLE15=Jerry Lee Lewis  - Somewhere Over The Rainbow 
TTITLE16=Glen Campbell  - Walk Right In 
TTITLE17=The Kingstone Trio - Where Have All The Flowers Gone 
EXTD=
EXTT0=
EXTT1=
EXTT2=
EXTT3=
EXTT4=
EXTT5=
EXTT6=
EXTT7=
EXTT8=
EXTT9=
EXTT10=
EXTT11=
EXTT12=
EXTT13=
EXTT14=
EXTT15=
EXTT16=
EXTT17=
PLAYORDER=
